<svg width="24" height="25" viewBox="0 0 24 25" fill="none" xmlns="http://www.w3.org/2000/svg">
<path d="M5 17.667V19.667V5.66699V17.667ZM5.61538 20.667C5.16794 20.667 4.78685 20.5096 4.4721 20.1949C4.15737 19.8801 4 19.4991 4 19.0516V6.28237C4 5.83493 4.15737 5.45384 4.4721 5.13909C4.78685 4.82436 5.16794 4.66699 5.61538 4.66699H18.3846C18.8321 4.66699 19.2132 4.82436 19.5279 5.13909C19.8426 5.45384 20 5.83493 20 6.28237V9.22467H19V6.28237C19 6.10288 18.9423 5.95545 18.8269 5.84007C18.7115 5.72468 18.5641 5.66699 18.3846 5.66699H5.61538C5.43589 5.66699 5.28846 5.72468 5.17308 5.84007C5.05769 5.95545 5 6.10288 5 6.28237V19.0516C5 19.2311 5.05769 19.3785 5.17308 19.4939C5.28846 19.6093 5.43589 19.667 5.61538 19.667H18.3846C18.5641 19.667 18.7115 19.6093 18.8269 19.4939C18.9423 19.3785 19 19.2311 19 19.0516V16.1093H20V19.0516C20 19.4991 19.8426 19.8801 19.5279 20.1949C19.2132 20.5096 18.8321 20.667 18.3846 20.667H5.61538ZM13.6154 16.667C13.1679 16.667 12.7868 16.5096 12.4721 16.1949C12.1574 15.8801 12 15.4991 12 15.0516V10.2824C12 9.83493 12.1574 9.45384 12.4721 9.13909C12.7868 8.82436 13.1679 8.66699 13.6154 8.66699H19.3846C19.8321 8.66699 20.2132 8.82436 20.5279 9.13909C20.8426 9.45384 21 9.83493 21 10.2824V15.0516C21 15.4991 20.8426 15.8801 20.5279 16.1949C20.2132 16.5096 19.8321 16.667 19.3846 16.667H13.6154ZM19.3846 15.667C19.5641 15.667 19.7115 15.6093 19.8269 15.4939C19.9423 15.3785 20 15.2311 20 15.0516V10.2824C20 10.1029 19.9423 9.95545 19.8269 9.84007C19.7115 9.72468 19.5641 9.66699 19.3846 9.66699H13.6154C13.4359 9.66699 13.2885 9.72468 13.1731 9.84007C13.0577 9.95545 13 10.1029 13 10.2824V15.0516C13 15.2311 13.0577 15.3785 13.1731 15.4939C13.2885 15.6093 13.4359 15.667 13.6154 15.667H19.3846ZM16 14.167C16.4167 14.167 16.7708 14.0212 17.0625 13.7295C17.3542 13.4378 17.5 13.0837 17.5 12.667C17.5 12.2503 17.3542 11.8962 17.0625 11.6045C16.7708 11.3128 16.4167 11.167 16 11.167C15.5833 11.167 15.2292 11.3128 14.9375 11.6045C14.6458 11.8962 14.5 12.2503 14.5 12.667C14.5 13.0837 14.6458 13.4378 14.9375 13.7295C15.2292 14.0212 15.5833 14.167 16 14.167Z" fill="black"/>
</svg>
