<svg width="20" height="17" viewBox="0 0 20 17" fill="none" xmlns="http://www.w3.org/2000/svg">
<path fill-rule="evenodd" clip-rule="evenodd" d="M3.73247 14.2878V15.3167C3.73247 15.8755 3.24717 16.333 2.65349 16.333H1.56174C0.968066 16.333 0.482762 15.8755 0.482762 15.3167V13.7436C0.895233 14.0896 1.47064 14.1824 2.00425 14.2215C2.57891 14.264 3.15632 14.276 3.73247 14.2878ZM16.2723 14.2878V15.3167C16.2723 15.8755 16.7576 16.333 17.3513 16.333H18.443C19.0365 16.333 19.522 15.8755 19.522 15.3167V13.7436C19.1095 14.0896 18.5339 14.1824 18.0003 14.2215C17.4256 14.264 16.8485 14.276 16.2723 14.2878ZM5.13307 8.5482H14.8294C14.8782 8.40844 14.9333 8.251 15.0016 8.07283C15.0371 7.97997 15.0634 7.89347 15.0814 7.81193H4.88104C4.89931 7.89347 4.92559 7.97997 4.96113 8.07283C5.02946 8.251 5.08452 8.40844 5.13307 8.5482ZM14.6309 9.06764H5.3318C5.60236 9.63163 5.99331 9.63163 8.05766 9.63163C9.34013 9.63163 10.6226 9.63163 11.9051 9.63163C13.9694 9.63163 14.3604 9.63163 14.6309 9.06764ZM4.88304 7.29225H15.0797C14.8574 6.54113 13.622 6.58591 13.622 6.58591C11.195 6.58591 8.76772 6.58591 6.3407 6.58591C6.3407 6.58591 5.10529 6.54113 4.88304 7.29225ZM18.0438 10.3962C18.3867 10.3962 18.6645 10.658 18.6645 10.9809C18.6645 11.3038 18.3867 11.5654 18.0438 11.5654C17.7009 11.5654 17.4231 11.3038 17.4231 10.9809C17.4231 10.658 17.7009 10.3962 18.0438 10.3962ZM2.03979 10.3962C2.38268 10.3962 2.6605 10.658 2.6605 10.9809C2.6605 11.3038 2.38268 11.5654 2.03979 11.5654C1.6969 11.5654 1.41908 11.3038 1.41908 10.9809C1.41908 10.658 1.6969 10.3962 2.03979 10.3962ZM9.99988 0.34623C8.84156 0.316534 5.33305 0.282125 4.51712 0.906211C3.70119 1.53053 3.1398 3.19327 2.76186 4.11738H2.46202C2.46202 4.11738 2.55388 3.28 1.69565 3.3236C0.837166 3.36673 0.0244881 3.82843 0.0244881 4.27599C0.0244881 4.72355 0.591886 4.89678 1.26641 4.89678C1.94068 4.89678 1.94068 4.5647 2.27806 4.63682C2.34314 4.65073 2.41472 4.66227 2.4873 4.67099C1.96295 5.32195 -0.164978 6.21235 0.0102218 9.48079C0.193932 12.9163 0.0715418 13.7247 2.03353 13.869C3.76151 13.9962 8.81703 13.9665 9.99988 13.9578C11.1825 13.9665 16.2383 13.9962 17.9665 13.869C19.9285 13.7247 19.8056 12.9163 19.9898 9.48079C20.1652 6.20528 18.0273 5.31794 17.509 4.66699C17.5703 4.6585 17.6296 4.64884 17.6847 4.63682C18.022 4.5647 18.0215 4.89678 18.6963 4.89678C19.3708 4.89678 19.9382 4.72355 19.9382 4.27599C19.9382 3.82843 19.1256 3.36673 18.2671 3.3236C17.4086 3.28 17.5007 4.11738 17.5007 4.11738H17.2377C16.8602 3.19327 16.2988 1.53053 15.4826 0.906211C14.6667 0.282125 11.1585 0.316534 9.99988 0.34623ZM5.00743 1.51215C4.33291 1.80086 3.29047 4.39925 3.29047 4.39925C7.75106 4.39925 12.2117 4.39925 16.6723 4.39925C16.6723 4.39925 15.6298 1.80086 14.9553 1.51215C14.2955 1.23004 5.66693 1.23004 5.00743 1.51215ZM14.3423 11.1042C14.3423 11.1042 15.0937 11.0608 15.4616 11.3061C15.8298 11.5515 17.2094 12.3599 14.2965 12.3599C11.419 12.3599 8.54372 12.3599 5.66618 12.3599C2.75336 12.3599 4.13293 11.5515 4.5011 11.3061C4.86902 11.0608 5.62038 11.1042 5.62038 11.1042H14.3423ZM4.30212 10.7002C4.02631 10.9024 3.0144 11.7393 2.95333 12.1725C2.89176 12.6057 2.79991 13.0964 1.94143 12.7789C1.08295 12.4612 0.469747 12.1725 0.622922 10.729C0.776347 9.28565 1.788 9.05444 3.16783 9.51638C4.5474 9.97855 4.4553 10.2383 5.62063 10.3538C7.00071 10.4905 12.9615 10.4905 14.3421 10.3538C15.5074 10.2383 15.4153 9.97855 16.7949 9.51638C18.1745 9.05444 19.1864 9.28565 19.3398 10.729C19.493 12.1725 18.8798 12.4612 18.0213 12.7789C17.1628 13.0964 17.071 12.6057 17.0094 12.1725C16.9483 11.7393 15.9364 10.9024 15.6606 10.7002C15.6516 10.6936 4.31113 10.6936 4.30212 10.7002ZM15.553 8.06576C15.6448 7.69032 15.7983 7.05539 16.3501 6.76644C16.9023 6.47773 18.5884 5.98704 18.7419 6.65096C18.8683 7.19892 18.8798 7.84516 18.5529 8.03795C18.3649 8.14895 15.4784 8.37002 15.553 8.06576ZM4.4095 8.06576C4.31739 7.69032 4.16447 7.05539 3.61259 6.76644C3.06046 6.47773 1.37428 5.98704 1.22085 6.65096C1.09446 7.19892 1.08295 7.84516 1.40982 8.03795C1.59779 8.14895 4.48433 8.37002 4.4095 8.06576Z" fill="black"/>
</svg>
