<svg width="24" height="18" viewBox="0 0 24 18" fill="none" xmlns="http://www.w3.org/2000/svg">
<path d="M14.477 4.04657H9.5166V12.9606H14.477V4.04657Z" fill="#FF5F00"/>
<path d="M9.83034 8.50357C9.82955 7.64509 10.0241 6.79768 10.3992 6.02549C10.7744 5.25331 11.3202 4.5766 11.9956 4.04658C11.1593 3.38923 10.1549 2.98043 9.09726 2.86691C8.03961 2.75339 6.97136 2.93973 6.01461 3.40463C5.05786 3.86953 4.25121 4.59424 3.68686 5.49591C3.12252 6.39758 2.82324 7.43984 2.82324 8.50357C2.82324 9.56729 3.12252 10.6095 3.68686 11.5112C4.25121 12.4129 5.05786 13.1376 6.01461 13.6025C6.97136 14.0674 8.03961 14.2537 9.09726 14.1402C10.1549 14.0267 11.1593 13.6179 11.9956 12.9606C11.3202 12.4305 10.7744 11.7538 10.3992 10.9816C10.0241 10.2095 9.82956 9.36205 9.83034 8.50357Z" fill="#EB001B"/>
<path d="M21.1691 8.50356C21.1692 9.56727 20.8699 10.6095 20.3056 11.5112C19.7413 12.4129 18.9347 13.1376 17.9779 13.6025C17.0212 14.0674 15.953 14.2537 14.8953 14.1402C13.8377 14.0267 12.8333 13.6179 11.9971 12.9606C12.6718 12.43 13.2173 11.7532 13.5923 10.9811C13.9674 10.2091 14.1623 9.36191 14.1623 8.50356C14.1623 7.64522 13.9674 6.79808 13.5923 6.02602C13.2173 5.25396 12.6718 4.57713 11.9971 4.04657C12.8333 3.38922 13.8377 2.98043 14.8953 2.86691C15.953 2.75339 17.0212 2.93974 17.9779 3.40464C18.9347 3.86955 19.7413 4.59426 20.3056 5.49593C20.8699 6.3976 21.1692 7.43986 21.1691 8.50356Z" fill="#F79E1B"/>
<path d="M20.6255 12.0164V11.8339H20.6991V11.7967H20.5117V11.8339H20.5853V12.0164H20.6255ZM20.9894 12.0164V11.7964H20.9319L20.8659 11.9477L20.7998 11.7964H20.7423V12.0164H20.7829V11.8504L20.8448 11.9935H20.8869L20.9488 11.8501V12.0164H20.9894Z" fill="#F79E1B"/>
</svg>
