<svg width="16" height="18" viewBox="0 0 16 18" fill="none" xmlns="http://www.w3.org/2000/svg">
<path d="M5.39997 13.1536L7.99997 10.5536L10.6 13.1536L11.6538 12.0998L9.0538 9.49981L11.6538 6.89981L10.6 5.84598L7.99997 8.44598L5.39997 5.84598L4.34615 6.89981L6.94615 9.49981L4.34615 12.0998L5.39997 13.1536ZM3.3077 17.4998C2.80257 17.4998 2.375 17.3248 2.025 16.9748C1.675 16.6248 1.5 16.1972 1.5 15.6921V2.99981H0.5V1.49983H4.99997V0.615234H11V1.49983H15.5V2.99981H14.5V15.6921C14.5 16.1972 14.325 16.6248 13.975 16.9748C13.625 17.3248 13.1974 17.4998 12.6922 17.4998H3.3077ZM13 2.99981H2.99997V15.6921C2.99997 15.769 3.03203 15.8395 3.09613 15.9037C3.16024 15.9678 3.23077 15.9998 3.3077 15.9998H12.6922C12.7692 15.9998 12.8397 15.9678 12.9038 15.9037C12.9679 15.8395 13 15.769 13 15.6921V2.99981Z" fill="black"/>
</svg>
