<svg width="60" height="69" viewBox="0 0 60 69" fill="none" xmlns="http://www.w3.org/2000/svg">
<path d="M8.43723 58.4953C5.24669 59.9343 1.77253 59.0709 0 58.4953V58.927C0 64.4672 4.46677 69 9.92615 69H44.1005C47.6455 69 50.8361 67.0573 52.5377 64.1793L13.6839 52.0918C12.6204 55.2576 10.8479 57.4161 8.43723 58.4953ZM40.2009 42.4505C40.2009 34.6799 46.3693 28.3483 54.0266 28.2044V10.073C54.0266 4.53285 49.5599 0 44.1005 0H9.92615C4.46677 0 0 4.53285 0 10.073V56.049C0.921714 56.4807 4.53767 57.8478 7.58641 56.4088C9.64254 55.4734 11.0606 53.4588 11.8405 50.365C11.9114 50.0772 12.1241 49.7894 12.4077 49.6455C12.6913 49.5016 12.9749 49.4296 13.2585 49.5735L53.5303 62.0928C53.8848 61.0855 54.0266 60.0063 54.0266 58.8551V56.6966C46.3693 56.5527 40.2009 50.2211 40.2009 42.4505ZM9.00443 11.0803H44.9513C45.5185 11.0803 46.0148 11.5839 46.0148 12.1595C46.0148 12.7351 45.5185 13.2388 44.9513 13.2388H9.00443C8.43723 13.2388 7.94092 12.7351 7.94092 12.1595C7.94092 11.5839 8.43723 11.0803 9.00443 11.0803ZM9.00443 22.1606H44.9513C45.5185 22.1606 46.0148 22.6642 46.0148 23.2398C46.0148 23.8154 45.5185 24.3191 44.9513 24.3191H9.00443C8.43723 24.3191 7.94092 23.8154 7.94092 23.2398C7.94092 22.5923 8.43723 22.1606 9.00443 22.1606ZM36.7977 35.3274H9.07534C8.50813 35.3274 8.01182 34.8238 8.01182 34.2482C8.01182 33.6726 8.50813 33.1689 9.07534 33.1689H36.7977C37.3649 33.1689 37.8612 33.6726 37.8612 34.2482C37.8612 34.8957 37.3649 35.3274 36.7977 35.3274ZM59.6987 40.3639L54.3811 34.9677C54.3102 34.8957 54.1684 34.8238 54.0266 34.7518C53.8848 34.6799 53.743 34.6799 53.6721 34.6799C53.6012 34.6799 53.3885 34.6799 53.3176 34.7518C53.1758 34.8238 53.034 34.8957 52.9631 34.9677L47.6455 40.3639C47.2201 40.7956 47.2201 41.4432 47.6455 41.8749C48.0709 42.3066 48.709 42.3066 49.1344 41.8749L52.6795 38.2774V48.7101C52.6795 49.2857 53.1758 49.7894 53.743 49.7894C54.3102 49.7894 54.8065 49.2857 54.8065 48.7101V38.2774L58.3516 41.8749C58.5643 42.0907 58.8479 42.1627 59.1315 42.1627C59.4151 42.1627 59.6987 42.0907 59.9114 41.8749C60.0532 41.4432 60.0532 40.7956 59.6987 40.3639Z" fill="black"/>
</svg>
