<svg width="17" height="17" viewBox="0 0 17 17" fill="none" xmlns="http://www.w3.org/2000/svg">
<path d="M8.49968 0.583252C4.12967 0.583252 0.583008 4.12992 0.583008 8.49992C0.583008 12.8699 4.12967 16.4166 8.49968 16.4166C12.8697 16.4166 16.4163 12.8699 16.4163 8.49992C16.4163 4.12992 12.8697 0.583252 8.49968 0.583252ZM8.49968 14.8333C5.00843 14.8333 2.16634 11.9912 2.16634 8.49992C2.16634 5.00867 5.00843 2.16659 8.49968 2.16659C11.9909 2.16659 14.833 5.00867 14.833 8.49992C14.833 11.9912 11.9909 14.8333 8.49968 14.8333ZM9.20426 7.78742C7.79509 7.32034 7.11426 7.02742 7.11426 6.28325C7.11426 5.47575 7.99301 5.18284 8.54718 5.18284C9.58426 5.18284 9.96426 5.96659 10.0513 6.24367L11.3022 5.71325C11.1834 5.36492 10.653 4.20117 9.19634 3.94784V2.95825H7.81093V3.95575C5.75259 4.39909 5.73676 6.212 5.73676 6.29909C5.73676 8.09617 7.51801 8.60284 8.38884 8.9195C9.63968 9.36284 10.1938 9.76659 10.1938 10.5266C10.1938 11.4212 9.36259 11.8012 8.62634 11.8012C7.18551 11.8012 6.77384 10.3208 6.72634 10.1466L5.41218 10.677C5.91093 12.4108 7.21718 12.8778 7.80301 13.0203V14.0416H9.18843V13.0599C9.60009 12.9887 11.5793 12.5928 11.5793 10.5108C11.5872 9.41034 11.1043 8.4445 9.20426 7.78742Z" fill="#2DBC20"/>
</svg>
