<svg width="24" height="25" viewBox="0 0 24 25" fill="none" xmlns="http://www.w3.org/2000/svg">
<path d="M11.9809 20.833C9.81549 20.833 7.92832 20.1201 6.31935 18.6945C4.71039 17.2689 3.78411 15.4817 3.54053 13.333H5.07125C5.32382 15.0599 6.10106 16.4916 7.40298 17.6282C8.70491 18.7647 10.2309 19.333 11.9809 19.333C13.9309 19.333 15.585 18.6538 16.9434 17.2955C18.3017 15.9372 18.9809 14.283 18.9809 12.333C18.9809 10.383 18.3017 8.72882 16.9434 7.37048C15.585 6.01215 13.9309 5.33298 11.9809 5.33298C10.8886 5.33298 9.86486 5.57561 8.90973 6.06086C7.95461 6.54611 7.13218 7.21373 6.44243 8.06373H9.0578V9.56371H3.98095V4.48683H5.4809V6.85608C6.29244 5.8984 7.26423 5.15513 8.39628 4.62628C9.52833 4.09743 10.7232 3.83301 11.9809 3.83301C13.1604 3.83301 14.2655 4.05609 15.2963 4.50226C16.327 4.94841 17.2257 5.55481 17.9924 6.32146C18.759 7.08813 19.3655 7.98684 19.8116 9.01761C20.2578 10.0484 20.4808 11.1535 20.4808 12.333C20.4808 13.5125 20.2578 14.6176 19.8116 15.6484C19.3655 16.6791 18.759 17.5778 17.9924 18.3445C17.2257 19.1112 16.327 19.7176 15.2963 20.1637C14.2655 20.6099 13.1604 20.833 11.9809 20.833ZM14.9828 16.3599L11.2597 12.6368V7.33298H12.7597V12.0291L16.0366 15.3061L14.9828 16.3599Z" fill="black"/>
</svg>
