<svg width="24" height="25" viewBox="0 0 24 25" fill="none" xmlns="http://www.w3.org/2000/svg">
<path d="M4.5 19.2176V17.7176H6.3077V10.2561C6.3077 8.91119 6.72276 7.72209 7.55287 6.68876C8.38301 5.65543 9.44872 4.99453 10.75 4.70608V4.08301C10.75 3.73579 10.8714 3.44066 11.1143 3.19761C11.3571 2.95454 11.6519 2.83301 11.9988 2.83301C12.3457 2.83301 12.641 2.95454 12.8846 3.19761C13.1282 3.44066 13.25 3.73579 13.25 4.08301V4.70608C14.5512 4.99453 15.6169 5.65543 16.4471 6.68876C17.2772 7.72209 17.6922 8.91119 17.6922 10.2561V17.7176H19.5V19.2176H4.5ZM11.9983 22.0253C11.5007 22.0253 11.0753 21.8483 10.7221 21.4943C10.3689 21.1403 10.1923 20.7147 10.1923 20.2176H13.8077C13.8077 20.7163 13.6305 21.1423 13.2761 21.4955C12.9218 21.8487 12.4959 22.0253 11.9983 22.0253ZM7.80765 17.7176H16.1923V10.2561C16.1923 9.09836 15.783 8.11022 14.9644 7.29163C14.1458 6.47303 13.1577 6.06373 12 6.06373C10.8423 6.06373 9.85413 6.47303 9.03555 7.29163C8.21695 8.11022 7.80765 9.09836 7.80765 10.2561V17.7176Z" fill="black"/>
</svg>
