<svg width="24" height="24" viewBox="0 0 24 24" fill="none" xmlns="http://www.w3.org/2000/svg">
<g clip-path="url(#clip0_761_1185)">
<path d="M12 24C18.6274 24 24 18.6274 24 12C24 5.37257 18.6274 0 12 0C5.37257 0 0 5.37257 0 12C0 18.6274 5.37257 24 12 24Z" fill="#4A5370"/>
<path d="M20.6002 20.3682C20.442 20.5308 20.2794 20.6885 20.1124 20.8418C20.1099 20.8442 20.1075 20.8462 20.105 20.8486C19.9135 21.025 19.7161 21.1944 19.5128 21.3576C19.2302 21.5853 18.9363 21.8003 18.6332 22.0016C18.6033 22.0217 18.5734 22.0413 18.543 22.0609C16.6612 23.2873 14.414 24 12.0003 24C11.9567 24 11.9127 23.9995 11.8691 23.999H11.8397C11.6046 23.996 11.3715 23.9862 11.1398 23.9691C10.9193 23.9539 10.7009 23.9324 10.4839 23.9049C10.4242 23.8976 10.3644 23.8898 10.3051 23.8809C10.1087 23.8535 9.91379 23.8207 9.7208 23.7835C9.60521 23.7615 9.49013 23.7375 9.37547 23.712C9.37008 23.711 9.36521 23.7095 9.35982 23.7085H9.35935C9.20358 23.6737 9.04931 23.6355 8.89599 23.5944L8.78724 23.565C8.64324 23.5253 8.50069 23.4827 8.35917 23.4372C8.31361 23.423 8.26856 23.4083 8.223 23.3931C8.17453 23.3775 8.12653 23.3613 8.07853 23.3441C8.00948 23.3206 7.94039 23.2961 7.87186 23.2707C7.79887 23.2437 7.72641 23.2163 7.65389 23.1884L0.974096 7.25828L0.0429688 5.03851L3.40199 3.62987L12.0582 0H12.0587L12.6542 1.41994L13.0696 2.41079L13.291 2.93832L13.626 3.73768L13.7206 3.96348L14.0585 4.7687L17.2339 12.3414L17.3152 12.5354L18.9183 16.3578L19.076 16.7334V16.7339L20.0042 18.9468L20.6002 20.3682Z" fill="#43C970"/>
<path d="M19.5128 21.3576C19.2302 21.5854 18.9364 21.8004 18.6332 22.0017C18.6033 22.0217 18.5734 22.0413 18.543 22.0609C16.6612 23.2873 14.414 24 12.0004 24C11.9568 24 11.9127 23.9995 11.8691 23.999H11.8397C11.6046 23.996 11.3715 23.9863 11.1398 23.9691C10.9194 23.954 10.7009 23.9324 10.4839 23.905C10.4242 23.8976 10.3644 23.8898 10.3052 23.881C10.1088 23.8536 9.9138 23.8207 9.72082 23.7835C9.60522 23.7615 9.49015 23.7375 9.37549 23.712L7.87183 20.1267L2.73535 7.87791C2.93077 7.79171 3.1081 7.68151 3.26532 7.55218C3.36132 7.47282 3.44996 7.38661 3.53031 7.29357C3.86434 6.912 4.06173 6.42661 4.08967 5.92017C4.10781 5.58713 4.05292 5.24522 3.91529 4.91658L7.21066 3.53484L8.5571 2.97009L9.21832 2.69287C9.24476 2.75606 9.27415 2.81775 9.30551 2.87751C9.45438 3.15965 9.65618 3.39867 9.89276 3.58819C10.0725 3.73219 10.2718 3.84679 10.4839 3.93005C10.5741 3.96581 10.6666 3.99567 10.7612 4.01967C10.8361 4.0388 10.912 4.05347 10.9889 4.06425C11.3808 4.12251 11.7927 4.07798 12.1845 3.91631C12.1885 3.91486 12.1924 3.91289 12.1963 3.91144L12.1977 3.91486L13.146 6.17672L15.5171 11.83L15.6096 12.0504L15.8761 12.6861L17.1794 15.7929C17.1794 15.7934 17.1794 15.7934 17.1794 15.7934L18.2364 18.3144L18.8879 19.867L19.5128 21.3576Z" fill="#3AB760"/>
<path d="M11.2716 18.8837C13.4338 18.8837 15.1867 17.1308 15.1867 14.9686C15.1867 12.8063 13.4338 11.0535 11.2716 11.0535C9.1093 11.0535 7.35645 12.8063 7.35645 14.9686C7.35645 17.1308 9.1093 18.8837 11.2716 18.8837Z" fill="#53D37A"/>
<path d="M21.2324 19.6652C21.1502 19.7647 21.0664 19.8621 20.9802 19.9586C20.8572 20.0982 20.7299 20.2349 20.6001 20.3681C20.4419 20.5307 20.2793 20.6884 20.1123 20.8417C20.1099 20.8441 20.1074 20.8461 20.1049 20.8485C19.9134 21.0249 19.7161 21.1943 19.5128 21.3575C19.2302 21.5852 18.9363 21.8003 18.6331 22.0015C18.6033 22.0216 18.5733 22.0412 18.543 22.0608C16.6612 23.2872 14.414 23.9999 12.0003 23.9999C11.9567 23.9999 11.9126 23.9994 11.869 23.9989H11.8396C11.6045 23.9959 11.3714 23.9861 11.1397 23.969C10.9193 23.9538 10.7009 23.9323 10.4839 23.9048C10.4241 23.8975 10.3643 23.8897 10.3051 23.8808C10.1087 23.8534 9.91373 23.8206 9.72075 23.7834C9.60516 23.7614 9.49008 23.7374 9.37542 23.7119C9.37003 23.7109 9.36516 23.7094 9.35977 23.7084H9.3593C9.20353 23.6737 9.04926 23.6355 8.89594 23.5943L8.78719 23.5649L7.87176 20.1265L4.0896 5.92009L3.5376 3.84681L12.6541 1.41985L15.7457 0.596488L16.1283 0.494629L16.1973 0.754692L16.5245 1.98263L16.7787 2.93823L17.1475 4.32287L17.2342 4.64762L19.5921 13.5051L20.6921 17.6375L20.7073 17.6943L21.2324 19.6652Z" fill="#43C970"/>
<path d="M20.1121 20.8417C20.1096 20.8442 20.1072 20.8461 20.1047 20.8486C19.9132 21.0249 19.7158 21.1944 19.5126 21.3575C19.2299 21.5853 18.9361 21.8003 18.6329 22.0016C18.603 22.0216 18.5731 22.0412 18.5428 22.0608C16.661 23.2873 14.4138 23.9999 12.0001 23.9999C11.9565 23.9999 11.9124 23.9994 11.8688 23.9989H11.8394C11.6043 23.996 11.3712 23.9862 11.1395 23.9691C10.9191 23.9539 10.7006 23.9323 10.4837 23.9049C10.4239 23.8975 10.3641 23.8897 10.3049 23.8809L9.23467 19.8616L8.72336 17.9421L7.58214 13.6564V13.656L5.81738 7.02709C6.0226 6.96831 6.21315 6.88356 6.38654 6.77683C6.49234 6.7112 6.59227 6.63775 6.68434 6.55689C7.06735 6.22431 7.32939 5.77028 7.4259 5.27214C7.48956 4.94495 7.48173 4.59868 7.39014 4.25434L9.89252 3.5882L10.4837 3.43098L12.3341 2.93822L12.9469 2.77515C12.9616 2.83051 12.9783 2.88488 12.9973 2.93827C13.1056 3.25074 13.277 3.52604 13.4925 3.75427C13.5641 3.82923 13.6399 3.89926 13.7203 3.96343C13.8941 4.10302 14.0876 4.21665 14.2943 4.2999C14.3139 4.30773 14.334 4.31556 14.3541 4.32292C14.7802 4.48159 15.2583 4.51445 15.7309 4.38854L17.9262 12.6338L18.0016 12.9169L18.918 16.3577L19.0463 16.8387V16.8391L19.6948 19.2759L20.1121 20.8417Z" fill="#3AB760"/>
<path d="M13.3052 19.131C15.4675 19.131 17.2203 17.3781 17.2203 15.2159C17.2203 13.0536 15.4675 11.3008 13.3052 11.3008C11.143 11.3008 9.39014 13.0536 9.39014 15.2159C9.39014 17.3781 11.143 19.131 13.3052 19.131Z" fill="#53D37A"/>
<path d="M22.1773 18.3599C22.1607 18.3863 22.144 18.4128 22.1273 18.4388C21.8545 18.8668 21.5553 19.2763 21.232 19.6652C21.1497 19.7646 21.0659 19.8621 20.9797 19.9586C20.8568 20.0982 20.7295 20.2348 20.5997 20.368C20.4415 20.5306 20.2789 20.6884 20.1118 20.8417C20.1094 20.8441 20.107 20.8461 20.1045 20.8485C19.913 21.0249 19.7156 21.1943 19.5123 21.3574C19.2297 21.5852 18.9358 21.8002 18.6327 22.0015C18.6028 22.0216 18.5729 22.0412 18.5425 22.0607C16.6607 23.2872 14.4135 23.9998 11.9998 23.9998C11.9562 23.9998 11.9122 23.9994 11.8686 23.9988H11.8392C11.6041 23.9959 11.371 23.9861 11.1393 23.969C10.9188 23.9538 10.7004 23.9322 10.4834 23.9048C10.4237 23.8975 10.3639 23.8896 10.3046 23.8808C10.1082 23.8534 9.91328 23.8206 9.7203 23.7834L9.23444 19.8616L9.02528 18.1762L8.3102 12.4054L7.42562 5.27196L7.21009 3.53468L7.16162 3.14285L8.55658 2.96997L9.30498 2.8774L13.0691 2.41061L16.5241 1.98255L18.2697 1.76608L20.0923 1.54028L20.2656 2.93815L20.3166 3.3491L20.6521 6.05571L22.1274 17.9578L22.1773 18.3599Z" fill="#43C970"/>
<path d="M20.9804 19.9586C20.8574 20.0982 20.7301 20.2348 20.6003 20.368C20.4421 20.5307 20.2795 20.6884 20.1125 20.8417C20.1101 20.8441 20.1076 20.8461 20.1051 20.8485C19.9136 21.0249 19.7163 21.1943 19.513 21.3574C19.2304 21.5852 18.9365 21.8002 18.6333 22.0015C18.6034 22.0216 18.5735 22.0412 18.5432 22.0608C16.6614 23.2872 14.4142 23.9998 12.0005 23.9998C11.9569 23.9998 11.9128 23.9994 11.8692 23.9989H11.8398C11.6047 23.9959 11.3716 23.9861 11.1399 23.969L10.5002 18.807L10.4841 18.6782L10.3768 17.8137L9.8312 13.4129L9.58632 11.4346L8.9873 6.60426C9.19838 6.5744 9.39873 6.51608 9.58534 6.43429C9.69896 6.38385 9.80771 6.32455 9.91009 6.25696C10.1325 6.11197 10.3264 5.9293 10.4841 5.71916C10.6281 5.52814 10.7423 5.31411 10.8201 5.08536C10.9274 4.76994 10.9671 4.4256 10.9235 4.07249L10.9891 4.06414L12.1847 3.9162L12.1979 3.91475L13.4929 3.75411L13.6262 3.73747L16.6301 3.36523C16.6741 3.71886 16.7966 4.0431 16.9788 4.3228C17.0538 4.43938 17.1394 4.54761 17.2345 4.64755C17.3873 4.80969 17.5636 4.9483 17.7571 5.05949C18.1695 5.29607 18.6597 5.40627 19.1682 5.34308L20.2785 14.2995L20.6924 17.6375L20.7017 17.7114L20.9804 19.9586Z" fill="#3AB760"/>
<path d="M15.2877 19.6537C17.4499 19.6537 19.2028 17.9008 19.2028 15.7386C19.2028 13.5763 17.4499 11.8235 15.2877 11.8235C13.1254 11.8235 11.3726 13.5763 11.3726 15.7386C11.3726 17.9008 13.1254 19.6537 15.2877 19.6537Z" fill="#53D37A"/>
<path d="M23.513 2.93823V15.3952C23.2019 16.4512 22.7499 17.447 22.1778 18.36C22.1611 18.3864 22.1444 18.4128 22.1278 18.4388C21.855 18.8669 21.5557 19.2764 21.2324 19.6652C21.1502 19.7647 21.0664 19.8621 20.9802 19.9586C20.8573 20.0982 20.7299 20.2349 20.6001 20.3681C20.4419 20.5307 20.2793 20.6884 20.1123 20.8417C20.1099 20.8441 20.1074 20.8461 20.105 20.8486C19.9134 21.0249 19.7161 21.1943 19.5128 21.3575C19.2302 21.5852 18.9363 21.8003 18.6331 22.0015C18.6033 22.0216 18.5734 22.0412 18.543 22.0608C16.6612 23.2872 14.414 23.9999 12.0003 23.9999C11.9567 23.9999 11.9126 23.9994 11.869 23.9989H11.8397C11.6045 23.9959 11.3714 23.9861 11.1397 23.969C10.9193 23.9538 10.7009 23.9323 10.4839 23.9049V2.93823H23.513Z" fill="#53D37A"/>
<path d="M22.1279 6.5986V18.4389C21.8551 18.867 21.5558 19.2765 21.2325 19.6654C21.1503 19.7648 21.0665 19.8622 20.9803 19.9587C20.8573 20.0983 20.73 20.235 20.6002 20.3682C20.442 20.5308 20.2794 20.6885 20.1124 20.8418C20.11 20.8443 20.1075 20.8462 20.105 20.8487C19.9135 21.025 19.7162 21.1945 19.5129 21.3576C19.2302 21.5854 18.9364 21.8004 18.6332 22.0017C18.6033 22.0217 18.5734 22.0413 18.5431 22.0609C16.6613 23.2873 14.4141 24 12.0004 24C11.9568 24 11.9127 23.9995 11.8691 23.999V17.647L11.8687 13.8319V6.59761C12.0822 6.59419 12.2884 6.56086 12.4833 6.50208C12.6023 6.46631 12.7175 6.42075 12.8277 6.36642C12.9393 6.31205 13.0456 6.24839 13.146 6.17686C13.4556 5.95645 13.7073 5.66063 13.8749 5.31581C13.9581 5.14439 14.0203 4.96073 14.0585 4.76873C14.0865 4.62426 14.1016 4.47534 14.1016 4.323H19.8523C19.8523 5.01703 20.1633 5.63859 20.6527 6.05588C20.6879 6.08625 20.7247 6.11564 20.7619 6.14353C21.1424 6.42914 21.6155 6.5986 22.1279 6.5986Z" fill="#43C970"/>
<path d="M16.9981 20.3527C19.1604 20.3527 20.9132 18.5998 20.9132 16.4376C20.9132 14.2753 19.1604 12.5225 16.9981 12.5225C14.8359 12.5225 13.083 14.2753 13.083 16.4376C13.083 18.5998 14.8359 20.3527 16.9981 20.3527Z" fill="#53D37A"/>
</g>
<defs>
<clipPath id="clip0_761_1185">
<rect width="24" height="24" fill="white"/>
</clipPath>
</defs>
</svg>
