<svg width="24" height="24" viewBox="0 0 24 24" fill="none" xmlns="http://www.w3.org/2000/svg">
<path d="M12 21.4803C9.83716 20.8906 8.04646 19.6175 6.62787 17.6611C5.20929 15.7047 4.5 13.5175 4.5 11.0996V5.34576L12 2.53809L19.5 5.34576V11.0996C19.5 13.5175 18.7907 15.7047 17.3721 17.6611C15.9535 19.6175 14.1628 20.8906 12 21.4803ZM12 19.8996C13.6166 19.3996 14.9666 18.4121 16.05 16.9371C17.1333 15.4621 17.7666 13.8163 17.95 11.9996H12V4.13421L5.99997 6.37459V11.54C5.99997 11.663 6.01664 11.8163 6.04997 11.9996H12V19.8996Z" fill="black"/>
</svg>
