<svg width="24" height="25" viewBox="0 0 24 25" fill="none" xmlns="http://www.w3.org/2000/svg">
<path d="M12 22.1473C9.83716 21.5576 8.04646 20.2845 6.62787 18.3281C5.20929 16.3717 4.5 14.1845 4.5 11.7666V6.01275L12 3.20508L19.5 6.01275V11.7666C19.5 13.0358 19.2919 14.2669 18.8759 15.4598C18.4599 16.6528 17.8435 17.746 17.0269 18.7396L13.8846 15.5973C13.6102 15.7871 13.3118 15.9294 12.9894 16.0242C12.667 16.1191 12.3372 16.1666 12 16.1666C11.0375 16.1666 10.2135 15.8238 9.52813 15.1384C8.84271 14.453 8.5 13.6291 8.5 12.6666C8.5 11.7041 8.84271 10.8801 9.52813 10.1947C10.2135 9.50931 11.0375 9.1666 12 9.1666C12.9625 9.1666 13.7864 9.50931 14.4718 10.1947C15.1572 10.8801 15.5 11.7041 15.5 12.6666C15.5 13.0041 15.4541 13.3302 15.3625 13.6448C15.2708 13.9593 15.1397 14.2589 14.9692 14.5435L16.8346 16.4089C17.1936 15.7063 17.4775 14.9688 17.6865 14.1964C17.8955 13.424 18 12.614 18 11.7666V7.04158L12 4.8012L5.99997 7.04158V11.7666C5.99997 13.7832 6.56664 15.6166 7.69997 17.2666C8.83331 18.9166 10.2666 20.0166 12 20.5666C12.4333 20.4332 12.8458 20.2624 13.2375 20.0541C13.6291 19.8457 14.0166 19.5999 14.4 19.3166L15.4153 20.3896C14.891 20.7948 14.3512 21.1432 13.7961 21.4348C13.241 21.7265 12.6423 21.964 12 22.1473ZM12 14.6666C12.55 14.6666 13.0208 14.4707 13.4125 14.0791C13.8041 13.6874 14 13.2166 14 12.6666C14 12.1166 13.8041 11.6457 13.4125 11.2541C13.0208 10.8624 12.55 10.6666 12 10.6666C11.45 10.6666 10.9791 10.8624 10.5875 11.2541C10.1958 11.6457 9.99997 12.1166 9.99997 12.6666C9.99997 13.2166 10.1958 13.6874 10.5875 14.0791C10.9791 14.4707 11.45 14.6666 12 14.6666Z" fill="black"/>
</svg>
