<svg width="29" height="28" viewBox="0 0 29 28" fill="none" xmlns="http://www.w3.org/2000/svg">
<rect x="0.5" width="9.33333" height="15.5556" rx="4.66667" fill="#F3C51B"/>
<path d="M7.69133 0H2.642C2.07403 0.000433704 1.52945 0.238125 1.12783 0.660876C0.726219 1.08363 0.500412 1.65688 0.5 2.25474V13.3008C0.500412 13.8987 0.726219 14.4719 1.12783 14.8947C1.52945 15.3174 2.07403 15.5551 2.642 15.5556H7.69133C8.2593 15.5551 8.80389 15.3174 9.2055 14.8947C9.60711 14.4719 9.83292 13.8987 9.83333 13.3008V2.25474C9.83292 1.65688 9.60711 1.08363 9.2055 0.660876C8.80389 0.238125 8.2593 0.000433704 7.69133 0ZM9.05556 13.3008C9.05473 13.6814 8.91074 14.0462 8.65508 14.3153C8.39941 14.5844 8.0529 14.736 7.69133 14.7368H2.642C2.28044 14.736 1.93392 14.5844 1.67826 14.3153C1.42259 14.0462 1.2786 13.6814 1.27778 13.3008V2.25474C1.2786 1.87415 1.42259 1.50939 1.67826 1.24027C1.93392 0.971151 2.28044 0.819578 2.642 0.818713H7.69133C8.0529 0.819578 8.39941 0.971151 8.65508 1.24027C8.91074 1.50939 9.05473 1.87415 9.05556 2.25474V13.3008Z" fill="black"/>
<path d="M6.64449 12.8535H3.68894C3.5858 12.8535 3.48688 12.8966 3.41395 12.9734C3.34102 13.0502 3.30005 13.1543 3.30005 13.2629C3.30005 13.3714 3.34102 13.4756 3.41395 13.5523C3.48688 13.6291 3.5858 13.6722 3.68894 13.6722H6.64449C6.74763 13.6722 6.84655 13.6291 6.91948 13.5523C6.99241 13.4756 7.03338 13.3714 7.03338 13.2629C7.03338 13.1543 6.99241 13.0502 6.91948 12.9734C6.84655 12.8966 6.74763 12.8535 6.64449 12.8535Z" fill="black"/>
<path d="M27.7514 22.3709V17.3408C27.7514 15.6042 26.4052 14.1905 24.7514 14.1905H24.2277L23.8564 13.4633H23.9626C24.5152 13.4633 24.9626 12.9934 24.9626 12.4132C24.9626 11.833 24.5152 11.3631 23.9626 11.3631H22.7864L21.7851 9.39809C21.3901 8.42676 20.4689 7.77832 19.4701 7.77832H9.76004C8.74004 7.77832 7.8338 8.411 7.43504 9.39809L6.4338 11.3631H5.26128C4.70877 11.3631 4.26128 11.833 4.26128 12.4132C4.26128 12.9934 4.70877 13.4633 5.26128 13.4633H5.36378L4.99252 14.1905H4.41252C2.75875 14.1905 1.41251 15.6042 1.41251 17.3408V22.3352C0.903776 22.3838 0.5 22.8196 0.5 23.367C0.5 23.9472 0.947489 24.4171 1.5 24.4171H2.62874V25.9922C2.62874 27.1001 3.48749 28.0005 4.54125 28.0005H8.13006C9.18507 28.0005 10.0426 27.0988 10.0426 25.9922V24.4171H19.1162V25.9922C19.1162 27.1001 19.9749 28.0005 21.0287 28.0005H24.6175C25.6725 28.0005 26.53 27.0988 26.53 25.9922V24.4171H27.5C28.0525 24.4171 28.5 23.9472 28.5 23.367C28.5 22.88 28.1789 22.489 27.7514 22.3709ZM9.22147 10.3419C9.23897 10.3065 9.25522 10.2711 9.26897 10.2343C9.34897 10.0217 9.54647 9.87858 9.75896 9.87858H19.469C19.6765 9.87858 19.869 10.0217 19.949 10.233C19.9628 10.2698 19.979 10.3065 19.9965 10.3419L21.9578 14.1905H7.26146L9.22147 10.3419ZM3.41282 17.3408C3.41282 16.7619 3.86156 16.2907 4.41282 16.2907H23.6055C23.6142 16.2907 23.623 16.2946 23.6305 16.2946C23.6392 16.2946 23.6492 16.2907 23.658 16.2907H24.7505C25.3018 16.2907 25.7505 16.7619 25.7505 17.3408V22.3171H20.2529L19.0529 19.5238C18.7304 18.7717 18.0154 18.286 17.2291 18.286H11.9341C11.1504 18.286 10.4341 18.7717 10.1104 19.5225L8.91035 22.3171H3.41275L3.41282 17.3408ZM8.04547 25.9005H4.63042V24.4173H8.04547V25.9005ZM11.1055 22.3171L11.9355 20.3862H17.2305L18.0593 22.3171H11.1055ZM24.5343 25.9005H21.1192V24.4173H24.5343V25.9005Z" fill="black"/>
<path d="M6.32605 20.3863C6.87857 20.3863 7.32606 19.9164 7.32606 19.3362C7.32606 18.756 6.87857 18.2861 6.32605 18.2861H6.31605C5.76479 18.2861 5.32104 18.756 5.32104 19.3362C5.32104 19.9164 5.77482 20.3863 6.32605 20.3863Z" fill="black"/>
<path d="M22.9374 20.3863C23.4899 20.3863 23.9374 19.9164 23.9374 19.3362C23.9374 18.756 23.4899 18.2861 22.9374 18.2861H22.9274C22.3761 18.2861 21.9324 18.756 21.9324 19.3362C21.9324 19.9164 22.3861 20.3863 22.9374 20.3863Z" fill="black"/>
</svg>
