<svg width="24" height="24" viewBox="0 0 24 24" fill="none" xmlns="http://www.w3.org/2000/svg">
<path d="M6.21255 17.0544C7.12542 16.4487 8.0514 16.0032 8.9905 15.7179C9.9296 15.4326 10.9328 15.29 12.0001 15.29C13.0674 15.29 14.0706 15.4326 15.0097 15.7179C15.9488 16.0032 16.8767 16.4487 17.7934 17.0544C18.4338 16.3525 18.9115 15.5731 19.2266 14.7163C19.5416 13.8595 19.6992 12.9539 19.6992 11.9995C19.6992 9.86011 18.9503 8.04213 17.4525 6.54551C15.9548 5.04888 14.1354 4.30056 11.9944 4.30056C9.85332 4.30056 8.03584 5.04888 6.54193 6.54551C5.04801 8.04213 4.30105 9.86011 4.30105 11.9995C4.30105 12.9539 4.45858 13.8595 4.77365 14.7163C5.08872 15.5731 5.56835 16.3525 6.21255 17.0544ZM12.0032 13.5092C11.0819 13.5092 10.2995 13.1884 9.65588 12.5469C9.01229 11.9053 8.6905 11.1239 8.6905 10.2027C8.6905 9.2814 9.01128 8.49897 9.65283 7.85539C10.2944 7.2118 11.0758 6.89001 11.9971 6.89001C12.9183 6.89001 13.7007 7.21079 14.3443 7.85234C14.9879 8.49389 15.3097 9.2753 15.3097 10.1966C15.3097 11.1178 14.9889 11.9003 14.3474 12.5438C13.7058 13.1874 12.9244 13.5092 12.0032 13.5092ZM12.007 20.8977C10.7815 20.8977 9.62725 20.6666 8.54415 20.2045C7.46107 19.7425 6.51421 19.1053 5.70358 18.293C4.89294 17.4807 4.2567 16.534 3.79485 15.4528C3.33298 14.3716 3.10205 13.2159 3.10205 11.9857C3.10205 10.7542 3.33309 9.60191 3.79518 8.52876C4.25724 7.45561 4.89442 6.51372 5.7067 5.70309C6.51898 4.89245 7.46573 4.25621 8.54693 3.79436C9.62813 3.3325 10.7838 3.10156 12.014 3.10156C13.2455 3.10156 14.3978 3.3326 15.471 3.79469C16.5441 4.25675 17.486 4.89393 18.2966 5.70621C19.1073 6.5185 19.7435 7.46235 20.2054 8.53776C20.6672 9.6132 20.8982 10.7648 20.8982 11.9927C20.8982 13.2182 20.6671 14.3725 20.205 15.4556C19.743 16.5386 19.1058 17.4855 18.2935 18.2961C17.4812 19.1068 16.5374 19.743 15.462 20.2049C14.3865 20.6667 13.2349 20.8977 12.007 20.8977ZM11.9998 19.6987C12.8724 19.6987 13.7272 19.5485 14.5641 19.2482C15.4009 18.9478 16.1803 18.5118 16.9021 17.94C16.1636 17.4791 15.3856 17.122 14.5682 16.8688C13.7508 16.6156 12.8953 16.489 12.0019 16.489C11.1085 16.489 10.2438 16.607 9.40785 16.8429C8.5719 17.0788 7.802 17.4445 7.09815 17.94C7.81995 18.5118 8.59918 18.9478 9.43585 19.2482C10.2725 19.5485 11.1272 19.6987 11.9998 19.6987ZM12.0001 12.3102C12.5725 12.3102 13.0674 12.1016 13.4847 11.6842C13.902 11.2669 14.1107 10.772 14.1107 10.1996C14.1107 9.62718 13.902 9.1323 13.4847 8.71499C13.0674 8.29767 12.5725 8.08901 12.0001 8.08901C11.4277 8.08901 10.9328 8.29767 10.5155 8.71499C10.0982 9.1323 9.8895 9.62718 9.8895 10.1996C9.8895 10.772 10.0982 11.2669 10.5155 11.6842C10.9328 12.1016 11.4277 12.3102 12.0001 12.3102Z" fill="black"/>
</svg>
