<svg width="13" height="15" viewBox="0 0 13 15" fill="none" xmlns="http://www.w3.org/2000/svg">
<path d="M6.89553 3.4625C8.3047 3.4625 8.8272 4.13542 8.8747 5.125H10.6243C10.5689 3.76333 9.73762 2.5125 8.08303 2.10875V0.375H5.70803V2.085C5.39928 2.14833 5.11428 2.25125 4.8372 2.37L6.03262 3.56542C6.28595 3.50208 6.57887 3.4625 6.89553 3.4625ZM1.33012 1.10333L0.213867 2.21958L2.9372 4.94292C2.9372 6.58958 4.1722 7.49208 6.03262 8.03833L8.81137 10.8171C8.5422 11.205 7.98012 11.5375 6.89553 11.5375C5.2647 11.5375 4.62345 10.8092 4.53637 9.875H2.7947C2.8897 11.6088 4.18803 12.5825 5.70803 12.9071V14.625H8.08303V12.9229C8.84303 12.7804 9.53178 12.4875 10.0305 12.0363L11.788 13.7938L12.9043 12.6775L1.33012 1.10333Z" fill="#FE655F"/>
</svg>
